<?xml version="1.0" encoding="UTF-8"?>
<svg width="900" height="400" viewBox="0 0 900 400" fill="none" xmlns="http://www.w3.org/2000/svg">
  <style>
    .box { fill: #f2f5fa; stroke: #2047c5; stroke-width: 2; rx: 10; }
    .arrow { stroke: #2047c5; stroke-width: 2; marker-end: url(#arrowhead); }
    .label { font-family: Arial, sans-serif; font-size: 16px; fill: #2c3e50; text-anchor: middle; }
    .sublabel { font-family: Arial, sans-serif; font-size: 13px; fill: #2c3e50; text-anchor: middle; }
  </style>
  <defs>
    <marker id="arrowhead" markerWidth="10" markerHeight="7" refX="10" refY="3.5" orient="auto">
      <polygon points="0 0, 10 3.5, 0 7" fill="#2047c5" />
    </marker>
  </defs>
  <!-- Input Frames -->
  <rect class="box" x="30" y="120" width="120" height="60"/>
  <text class="label" x="90" y="155">Input Frames</text>
  <text class="sublabel" x="90" y="175">(RGB Sequence)</text>
  <!-- Frame Diff -->
  <rect class="box" x="30" y="200" width="120" height="60"/>
  <text class="label" x="90" y="235">Frame Diff</text>
  <text class="sublabel" x="90" y="255">(Motion Map)</text>
  <!-- + -->
  <text class="label" x="170" y="170">+</text>
  <!-- CNN Backbone -->
  <rect class="box" x="200" y="120" width="160" height="60"/>
  <text class="label" x="280" y="155">CNN Backbone</text>
  <text class="sublabel" x="280" y="175">(ResNet18/34)</text>
  <!-- Arrow from Input Frames to CNN -->
  <line class="arrow" x1="150" y1="150" x2="200" y2="150"/>
  <!-- Arrow from Frame Diff to CNN -->
  <line class="arrow" x1="150" y1="230" x2="200" y2="150"/>
  <!-- Temporal Stack -->
  <rect class="box" x="400" y="120" width="120" height="60"/>
  <text class="label" x="460" y="155">Temporal Stack</text>
  <text class="sublabel" x="460" y="175">(Seq. Features)</text>
  <!-- Arrow from CNN to Temporal Stack -->
  <line class="arrow" x1="360" y1="150" x2="400" y2="150"/>
  <!-- ViT Transformer -->
  <rect class="box" x="560" y="120" width="160" height="60"/>
  <text class="label" x="640" y="155">ViT Transformer</text>
  <text class="sublabel" x="640" y="175">(Temporal Modeling)</text>
  <!-- Arrow from Temporal Stack to ViT -->
  <line class="arrow" x1="520" y1="150" x2="560" y2="150"/>
  <!-- Output Head -->
  <rect class="box" x="760" y="120" width="110" height="60"/>
  <text class="label" x="815" y="155">Output Head</text>
  <text class="sublabel" x="815" y="175">(Visibility, X, Y)</text>
  <!-- Arrow from ViT to Output Head -->
  <line class="arrow" x1="720" y1="150" x2="760" y2="150"/>
  <!-- Output Trajectory -->
  <rect class="box" x="760" y="220" width="110" height="60"/>
  <text class="label" x="815" y="255">Trajectory</text>
  <text class="sublabel" x="815" y="275">(Overlay/Export)</text>
  <!-- Arrow from Output Head to Trajectory -->
  <line class="arrow" x1="815" y1="180" x2="815" y2="220"/>
</svg> 