<?xml version="1.0" encoding="UTF-8"?>
<svg width="900" height="400" viewBox="0 0 900 400" fill="none" xmlns="http://www.w3.org/2000/svg">
  <style>
    .box { fill: #f2f5fa; stroke: #2047c5; stroke-width: 2; rx: 10; }
    .arrow { stroke: #2047c5; stroke-width: 2; marker-end: url(#arrowhead); }
    .label { font-family: Arial, sans-serif; font-size: 16px; fill: #2c3e50; text-anchor: middle; }
    .sublabel { font-family: Arial, sans-serif; font-size: 13px; fill: #2c3e50; text-anchor: middle; }
    .improved { fill: #e8f5e9; stroke: #1b5e20; stroke-width: 2; rx: 10; }
    .improved-label { font-family: Arial, sans-serif; font-size: 16px; fill: #1b5e20; text-anchor: middle; }
    .improved-sublabel { font-family: Arial, sans-serif; font-size: 13px; fill: #1b5e20; text-anchor: middle; }
  </style>
  <defs>
    <marker id="arrowhead" markerWidth="10" markerHeight="7" refX="10" refY="3.5" orient="auto">
      <polygon points="0 0, 10 3.5, 0 7" fill="#2047c5" />
    </marker>
  </defs>
  <!-- Input Frames -->
  <rect class="box" x="30" y="120" width="120" height="60"/>
  <text class="label" x="90" y="155">Input Frames</text>
  <text class="sublabel" x="90" y="175">(RGB Sequence)</text>
  <!-- Frame Diff -->
  <rect class="improved" x="30" y="200" width="120" height="60"/>
  <text class="improved-label" x="90" y="235">Median Diff</text>
  <text class="improved-sublabel" x="90" y="255">(Background Sub)</text>
  <!-- + -->
  <text class="label" x="170" y="170">+</text>
  <!-- CNN Backbone -->
  <rect class="improved" x="200" y="120" width="160" height="60"/>
  <text class="improved-label" x="280" y="155">CNN Backbone</text>
  <text class="improved-sublabel" x="280" y="175">(EfficientNetB3)</text>
  <!-- Arrow from Input Frames to CNN -->
  <line class="arrow" x1="150" y1="150" x2="200" y2="150"/>
  <!-- Arrow from Frame Diff to CNN -->
  <line class="arrow" x1="150" y1="230" x2="200" y2="150"/>
  <!-- Dropout -->
  <rect class="improved" x="400" y="70" width="120" height="40"/>
  <text class="improved-label" x="460" y="95">Dropout (0.2)</text>
  <!-- Temporal Stack -->
  <rect class="box" x="400" y="120" width="120" height="60"/>
  <text class="label" x="460" y="155">Temporal Stack</text>
  <text class="sublabel" x="460" y="175">(Seq. Features)</text>
  <!-- Arrow from CNN to Dropout -->
  <line class="arrow" x1="360" y1="150" x2="400" y2="90"/>
  <!-- Arrow from Dropout to Temporal Stack -->
  <line class="arrow" x1="460" y1="110" x2="460" y2="120"/>
  <!-- ViT Transformer -->
  <rect class="improved" x="560" y="120" width="160" height="60"/>
  <text class="improved-label" x="640" y="155">Transformer</text>
  <text class="improved-sublabel" x="640" y="175">(4 layers, 8 heads)</text>
  <!-- Arrow from Temporal Stack to ViT -->
  <line class="arrow" x1="520" y1="150" x2="560" y2="150"/>
  <!-- Gradient Clipping -->
  <rect class="improved" x="560" y="70" width="160" height="40"/>
  <text class="improved-label" x="640" y="95">Gradient Clipping</text>
  <!-- Output Head -->
  <rect class="box" x="760" y="120" width="110" height="60"/>
  <text class="label" x="815" y="155">Output Head</text>
  <text class="sublabel" x="815" y="175">(Visibility, X, Y)</text>
  <!-- Arrow from ViT to Output Head -->
  <line class="arrow" x1="720" y1="150" x2="760" y2="150"/>
  <!-- Output Trajectory -->
  <rect class="box" x="760" y="220" width="110" height="60"/>
  <text class="label" x="815" y="255">Trajectory</text>
  <text class="sublabel" x="815" y="275">(Overlay/Export)</text>
  <!-- Arrow from Output Head to Trajectory -->
  <line class="arrow" x1="815" y1="180" x2="815" y2="220"/>
  <!-- Legend -->
  <rect class="box" x="30" y="320" width="20" height="20"/>
  <text class="label" x="145" y="335">Original components</text>
  <rect class="improved" x="30" y="350" width="20" height="20"/>
  <text class="improved-label" x="145" y="365">Improved components</text>
</svg> 